<svg width="18" height="18" viewBox="0 0 18 18" fill="none" xmlns="http://www.w3.org/2000/svg">
<path d="M8.99976 0.25C7.26917 0.25 5.57745 0.763179 4.13852 1.72464C2.69959 2.6861 1.57808 4.05267 0.915814 5.65152C0.253547 7.25037 0.0802679 9.00971 0.417889 10.707C0.755509 12.4044 1.58887 13.9635 2.81258 15.1872C4.03628 16.4109 5.59539 17.2443 7.29272 17.5819C8.99005 17.9195 10.7494 17.7462 12.3482 17.0839C13.9471 16.4217 15.3137 15.3002 16.2751 13.8612C17.2366 12.4223 17.7498 10.7306 17.7498 9C17.7498 6.67936 16.8279 4.45376 15.1869 2.81282C13.546 1.17187 11.3204 0.25 8.99976 0.25ZM8.58309 11.5L6.08309 9.41667L6.91642 8.58333L8.58309 9.83333L11.0831 6.5L11.9164 7.33333L8.58309 11.5Z" fill="white"/>
</svg>
