<svg width="24" height="24" viewBox="0 0 24 24" fill="none" xmlns="http://www.w3.org/2000/svg">
<g clip-path="url(#clip0_1489_6830)">
<path d="M3.75 18.75V11.8711L1.06058 14.5606L0 13.5L4.5 9L9 13.5L7.93943 14.5606L5.25 11.8711V18.75H14.25V20.25H5.25C4.85232 20.2495 4.47107 20.0913 4.18987 19.8101C3.90866 19.5289 3.75048 19.1477 3.75 18.75Z" fill="#5D5FEF"/>
<path d="M18 16.5H21C21.3977 16.5004 21.779 16.6586 22.0602 16.9398C22.3414 17.221 22.4996 17.6023 22.5 18V21C22.4996 21.3977 22.3414 21.779 22.0602 22.0602C21.779 22.3414 21.3977 22.4996 21 22.5H18C17.6023 22.4996 17.221 22.3414 16.9398 22.0602C16.6586 21.779 16.5004 21.3977 16.5 21V18C16.5004 17.6023 16.6586 17.221 16.9398 16.9398C17.221 16.6586 17.6023 16.5004 18 16.5ZM21 21V18H17.9989L18 21H21Z" fill="#5D5FEF"/>
<path d="M20.25 4.5V11.3789L22.9394 8.68943L24 9.75L19.5 14.25L15 9.75L16.0606 8.68943L18.75 11.3789V4.5H9.75V3H18.75C19.1477 3.00048 19.5289 3.15866 19.8101 3.43987C20.0913 3.72107 20.2495 4.10232 20.25 4.5Z" fill="#5D5FEF"/>
<path d="M6 4.5H1.5V6H6V4.5Z" fill="#5D5FEF"/>
<path d="M7.5 1.5H1.5V3H7.5V1.5Z" fill="#5D5FEF"/>
</g>
<defs>
<clipPath id="clip0_1489_6830">
<rect width="24" height="24" fill="white"/>
</clipPath>
</defs>
</svg>
