<svg viewBox="0 0 20 20" xmlns="http://www.w3.org/2000/svg" xmlns:xlink="http://www.w3.org/1999/xlink" width="20.000000" height="20.000000" fill="none">
	<rect id="copy" width="20.000000" height="20.000000" x="0.000000" y="0.000000" fill="rgb(255,255,255)" fill-opacity="0" />
	<path id="Vector" d="M17.5 6.25L17.5 17.5L6.25 17.5L6.25 6.25L17.5 6.25ZM17.5 5L6.25 5C5.91848 5 5.60054 5.1317 5.36612 5.36612C5.1317 5.60054 5 5.91848 5 6.25L5 17.5C5 17.8315 5.1317 18.1495 5.36612 18.3839C5.60054 18.6183 5.91848 18.75 6.25 18.75L17.5 18.75C17.8315 18.75 18.1495 18.6183 18.3839 18.3839C18.6183 18.1495 18.75 17.8315 18.75 17.5L18.75 6.25C18.75 5.91848 18.6183 5.60054 18.3839 5.36612C18.1495 5.1317 17.8315 5 17.5 5Z" fill="rgb(93,95,239)" fill-rule="nonzero" />
	<path id="Vector" d="M2.5 11.25L1.25 11.25L1.25 2.5C1.25 2.16848 1.3817 1.85054 1.61612 1.61612C1.85054 1.3817 2.16848 1.25 2.5 1.25L11.25 1.25L11.25 2.5L2.5 2.5L2.5 11.25Z" fill="rgb(93,95,239)" fill-rule="nonzero" />
	<path id="&lt;Transparent Rectangle>" />
</svg>
