<svg width="24" height="24" viewBox="0 0 24 24" fill="none" xmlns="http://www.w3.org/2000/svg">
<g clip-path="url(#clip0_1489_6819)">
<path d="M15.75 9V7.5H12.75V5.25H11.25V7.5H9.75C9.3523 7.5004 8.971 7.65856 8.68978 7.93978C8.40856 8.221 8.2504 8.6023 8.25 9V11.25C8.2504 11.6477 8.40856 12.029 8.68978 12.3102C8.971 12.5914 9.3523 12.7496 9.75 12.75H14.25V15H8.25V16.5H11.25V18.75H12.75V16.5H14.25C14.6477 16.4995 15.029 16.3414 15.3102 16.0602C15.5914 15.779 15.7495 15.3977 15.75 15V12.75C15.7496 12.3523 15.5914 11.971 15.3102 11.6898C15.029 11.4086 14.6477 11.2504 14.25 11.25H9.75V9H15.75Z" fill="#5D5FEF"/>
<path d="M12 3C13.78 3 15.5201 3.52784 17.0001 4.51677C18.4802 5.50571 19.6337 6.91131 20.3149 8.55585C20.9961 10.2004 21.1743 12.01 20.8271 13.7558C20.4798 15.5016 19.6226 17.1053 18.364 18.364C17.1053 19.6226 15.5016 20.4798 13.7558 20.8271C12.01 21.1743 10.2004 20.9961 8.55585 20.3149C6.91132 19.6337 5.50571 18.4802 4.51678 17.0001C3.52785 15.5201 3 13.78 3 12C3.00699 9.6152 3.95744 7.33007 5.64376 5.64375C7.33008 3.95744 9.6152 3.00698 12 3ZM12 1.5C9.9233 1.5 7.89323 2.11581 6.16652 3.26957C4.4398 4.42332 3.09399 6.0632 2.29927 7.98182C1.50455 9.90045 1.29661 12.0116 1.70176 14.0484C2.1069 16.0852 3.10693 17.9562 4.57538 19.4246C6.04383 20.8931 7.91476 21.8931 9.95156 22.2982C11.9884 22.7034 14.0996 22.4955 16.0182 21.7007C17.9368 20.906 19.5767 19.5602 20.7304 17.8335C21.8842 16.1068 22.5 14.0767 22.5 12C22.4919 9.21773 21.383 6.55175 19.4156 4.58438C17.4483 2.61702 14.7823 1.50815 12 1.5Z" fill="#5D5FEF"/>
</g>
<defs>
<clipPath id="clip0_1489_6819">
<rect width="24" height="24" fill="white"/>
</clipPath>
</defs>
</svg>
