<svg width="42" height="42" viewBox="0 0 42 42" fill="none" xmlns="http://www.w3.org/2000/svg">
<g opacity="0.9" clip-path="url(#clip0_4498_6144)">
<path d="M27.5625 15.75V13.125H22.3125V9.1875H19.6875V13.125H17.0625C16.3665 13.1257 15.6992 13.4025 15.2071 13.8946C14.715 14.3867 14.4382 15.054 14.4375 15.75V19.6875C14.4382 20.3835 14.715 21.0508 15.2071 21.5429C15.6992 22.035 16.3665 22.3118 17.0625 22.3125H24.9375V26.25H14.4375V28.875H19.6875V32.8125H22.3125V28.875H24.9375C25.6334 28.8742 26.3007 28.5974 26.7928 28.1053C27.2849 27.6132 27.5617 26.9459 27.5625 26.25V22.3125C27.5618 21.6165 27.285 20.9492 26.7929 20.4571C26.3008 19.965 25.6335 19.6882 24.9375 19.6875H17.0625V15.75H27.5625Z" fill="#5D5FEF"/>
<path d="M21 5.25C24.1151 5.25 27.1602 6.17372 29.7502 7.90435C32.3403 9.63499 34.359 12.0948 35.5511 14.9727C36.7432 17.8507 37.0551 21.0175 36.4474 24.0727C35.8397 27.1279 34.3396 29.9343 32.1369 32.1369C29.9343 34.3396 27.1279 35.8396 24.0727 36.4474C21.0175 37.0551 17.8507 36.7432 14.9727 35.5511C12.0948 34.359 9.63499 32.3403 7.90436 29.7502C6.17373 27.1602 5.25001 24.1151 5.25001 21C5.26223 16.8266 6.92553 12.8276 9.87658 9.87657C12.8276 6.92552 16.8266 5.26222 21 5.25ZM21 2.625C17.3658 2.625 13.8132 3.70268 10.7914 5.72175C7.76965 7.74082 5.41448 10.6106 4.02372 13.9682C2.63296 17.3258 2.26908 21.0204 2.97808 24.5848C3.68708 28.1492 5.43713 31.4233 8.00692 33.9931C10.5767 36.5629 13.8508 38.3129 17.4152 39.0219C20.9796 39.7309 24.6742 39.367 28.0318 37.9763C31.3894 36.5855 34.2592 34.2304 36.2783 31.2086C38.2973 28.1868 39.375 24.6342 39.375 21C39.3607 16.131 37.4202 11.4656 33.9773 8.02267C30.5344 4.57978 25.869 2.63927 21 2.625Z" fill="#5D5FEF"/>
</g>
<defs>
<clipPath id="clip0_4498_6144">
<rect width="42" height="42" fill="white"/>
</clipPath>
</defs>
</svg>
