<svg width="42" height="42" viewBox="0 0 42 42" fill="none" xmlns="http://www.w3.org/2000/svg">
<g opacity="0.9" clip-path="url(#clip0_4498_6152)">
<path d="M21 21H5.25V23.625H21V21Z" fill="#5D5FEF"/>
<path d="M15.75 14.4375H2.625V17.0625H15.75V14.4375Z" fill="#5D5FEF"/>
<path d="M39.2686 21.7959L35.3311 12.6084C35.2302 12.3721 35.0621 12.1707 34.8477 12.0292C34.6332 11.8877 34.3819 11.8123 34.125 11.8125H30.1875V9.1875C30.1875 8.8394 30.0492 8.50556 29.8031 8.25942C29.557 8.01328 29.2231 7.875 28.875 7.875H7.87502V10.5H27.5625V26.98C26.9645 27.3273 26.4412 27.7895 26.0227 28.34C25.6041 28.8905 25.2987 29.5184 25.124 30.1875H16.876C16.5566 28.9503 15.7968 27.872 14.7393 27.1548C13.6817 26.4377 12.3988 26.1308 11.1312 26.2918C9.86357 26.4529 8.69818 27.0707 7.85347 28.0294C7.00876 28.9882 6.54272 30.2222 6.54272 31.5C6.54272 32.7778 7.00876 34.0118 7.85347 34.9706C8.69818 35.9293 9.86357 36.5471 11.1312 36.7082C12.3988 36.8692 13.6817 36.5623 14.7393 35.8452C15.7968 35.128 16.5566 34.0497 16.876 32.8125H25.124C25.4102 33.9383 26.0634 34.9366 26.9804 35.6497C27.8974 36.3627 29.0259 36.7499 30.1875 36.7499C31.3491 36.7499 32.4776 36.3627 33.3946 35.6497C34.3116 34.9366 34.9648 33.9383 35.251 32.8125H38.0625C38.4106 32.8125 38.7445 32.6742 38.9906 32.4281C39.2367 32.1819 39.375 31.8481 39.375 31.5V22.3125C39.375 22.1349 39.3388 21.9591 39.2686 21.7959ZM11.8125 34.125C11.2933 34.125 10.7858 33.971 10.3541 33.6826C9.92247 33.3942 9.58602 32.9842 9.38734 32.5045C9.18866 32.0249 9.13667 31.4971 9.23796 30.9879C9.33925 30.4787 9.58925 30.011 9.95637 29.6438C10.3235 29.2767 10.7912 29.0267 11.3004 28.9254C11.8096 28.8242 12.3374 28.8761 12.8171 29.0748C13.2967 29.2735 13.7067 29.6099 13.9951 30.0416C14.2836 30.4733 14.4375 30.9808 14.4375 31.5C14.4367 32.1959 14.1599 32.8632 13.6678 33.3553C13.1757 33.8474 12.5085 34.1242 11.8125 34.125ZM30.1875 14.4375H33.2598L36.0726 21H30.1875V14.4375ZM30.1875 34.125C29.6683 34.125 29.1608 33.971 28.7291 33.6826C28.2975 33.3942 27.961 32.9842 27.7623 32.5045C27.5637 32.0249 27.5117 31.4971 27.613 30.9879C27.7142 30.4787 27.9643 30.011 28.3314 29.6438C28.6985 29.2767 29.1662 29.0267 29.6754 28.9254C30.1846 28.8242 30.7124 28.8761 31.1921 29.0748C31.6717 29.2735 32.0817 29.6099 32.3701 30.0416C32.6586 30.4733 32.8125 30.9808 32.8125 31.5C32.8117 32.1959 32.5349 32.8632 32.0428 33.3553C31.5507 33.8474 30.8835 34.1242 30.1875 34.125ZM36.75 30.1875H35.251C34.9618 29.0633 34.3078 28.0669 33.3915 27.3543C32.4752 26.6417 31.3483 26.2533 30.1875 26.25V23.625H36.75V30.1875Z" fill="#5D5FEF"/>
</g>
<defs>
<clipPath id="clip0_4498_6152">
<rect width="42" height="42" fill="white"/>
</clipPath>
</defs>
</svg>
