<svg viewBox="0 0 20 20" xmlns="http://www.w3.org/2000/svg" xmlns:xlink="http://www.w3.org/1999/xlink" width="20.000000" height="20.000000" fill="none">
	<rect id="facebook" width="20.000000" height="20.000000" x="0.000000" y="0.000000" fill="rgb(255,255,255)" fill-opacity="0" />
	<path id="Vector" d="M12.1215 3.33337C11.2174 3.33337 10.3503 3.68456 9.71095 4.30968C9.07162 4.93481 8.71245 5.78265 8.71245 6.66671L8.71245 8.66671L6.66699 8.66671L6.66699 11.3334L8.71245 11.3334L8.71245 16.6667L11.4397 16.6667L11.4397 11.3334L13.4852 11.3334L14.167 8.66671L11.4397 8.66671L11.4397 6.66671C11.4397 6.4899 11.5116 6.32033 11.6394 6.1953C11.7673 6.07028 11.9407 6.00004 12.1215 6.00004L14.167 6.00004L14.167 3.33337L12.1215 3.33337Z" fill-rule="nonzero" stroke="rgb(93,95,239)" stroke-linecap="round" stroke-linejoin="round" stroke-width="1.25" />
</svg>
