<svg width="42" height="42" viewBox="0 0 42 42" fill="none" xmlns="http://www.w3.org/2000/svg">
<g opacity="0.9" clip-path="url(#clip0_4498_6656)">
<path d="M34.125 13.1251H30.5003C31.3546 11.8624 31.6859 10.3177 31.4246 8.81571C31.1633 7.31377 30.3297 5.9717 29.0991 5.07178C27.8686 4.17186 26.337 3.78422 24.8265 3.99041C23.316 4.19659 21.9443 4.98053 21 6.17733C20.0536 4.98645 18.6831 4.20794 17.1756 4.00483C15.668 3.80173 14.1404 4.18978 12.9125 5.08773C11.6847 5.98567 10.8519 7.32386 10.5885 8.82205C10.3252 10.3202 10.6517 11.8622 11.4997 13.1251H7.875C7.17907 13.1259 6.5119 13.4028 6.0198 13.8949C5.52771 14.3869 5.25087 15.0541 5.25 15.7501V21.0001C5.25087 21.696 5.52771 22.3632 6.0198 22.8552C6.5119 23.3473 7.17907 23.6242 7.875 23.6251V36.75C7.87587 37.446 8.15271 38.1132 8.6448 38.6052C9.1369 39.0973 9.80407 39.3742 10.5 39.375H31.5C32.1959 39.3742 32.8631 39.0973 33.3552 38.6052C33.8473 38.1132 34.1241 37.446 34.125 36.75V23.6251C34.8209 23.6242 35.4881 23.3473 35.9802 22.8552C36.4723 22.3632 36.7491 21.696 36.75 21.0001V15.7501C36.7491 15.0541 36.4723 14.3869 35.9802 13.8949C35.4881 13.4028 34.8209 13.1259 34.125 13.1251ZM22.3125 9.8438C22.3125 9.19483 22.5049 8.56043 22.8655 8.02084C23.226 7.48124 23.7385 7.06067 24.3381 6.81232C24.9376 6.56397 25.5974 6.49899 26.2339 6.6256C26.8704 6.75221 27.4551 7.06472 27.9139 7.52361C28.3728 7.9825 28.6853 8.56716 28.812 9.20366C28.9386 9.84016 28.8736 10.4999 28.6252 11.0995C28.3769 11.6991 27.9563 12.2115 27.4167 12.5721C26.8771 12.9326 26.2427 13.1251 25.5938 13.1251H22.3125V9.8438ZM16.4062 6.56255C17.2762 6.56359 18.1102 6.90963 18.7253 7.52476C19.3404 8.13989 19.6865 8.97388 19.6875 9.8438V13.1251H16.4062C15.536 13.1251 14.7014 12.7793 14.0861 12.164C13.4707 11.5486 13.125 10.714 13.125 9.8438C13.125 8.97356 13.4707 8.13896 14.0861 7.52361C14.7014 6.90825 15.536 6.56255 16.4062 6.56255ZM7.875 15.7501H19.6875V21.0001H7.875V15.7501ZM10.5 23.6251H19.6875V36.75H10.5V23.6251ZM31.5016 36.75H22.3125V23.6251H31.5L31.5016 36.75ZM22.3125 21.0001V15.7501H34.125L34.1266 21.0001H22.3125Z" fill="#5D5FEF"/>
</g>
<defs>
<clipPath id="clip0_4498_6656">
<rect width="42" height="42" fill="white"/>
</clipPath>
</defs>
</svg>
