<svg width="42" height="42" viewBox="0 0 42 42" fill="none" xmlns="http://www.w3.org/2000/svg">
<g opacity="0.9" clip-path="url(#clip0_4498_5254)">
<path d="M32.8125 13.125H32.7338C32.3998 10.2472 31.0199 7.59254 28.8565 5.66569C26.6931 3.73883 23.8971 2.67419 21 2.67419C18.1029 2.67419 15.3069 3.73883 13.1435 5.66569C10.9801 7.59254 9.60022 10.2472 9.26625 13.125H9.1875C7.44702 13.125 5.77782 13.8164 4.54711 15.0471C3.3164 16.2778 2.625 17.947 2.625 19.6875C2.625 21.428 3.3164 23.0972 4.54711 24.3279C5.77782 25.5586 7.44702 26.25 9.1875 26.25H11.8125V14.4375C11.8125 12.0008 12.7805 9.66393 14.5035 7.94094C16.2264 6.21795 18.5633 5.24998 21 5.24998C23.4367 5.24998 25.7736 6.21795 27.4965 7.94094C29.2195 9.66393 30.1875 12.0008 30.1875 14.4375V27.5625C30.1866 28.765 29.7729 29.9308 29.0156 30.8649C28.2583 31.799 27.2032 32.4448 26.0269 32.6944C25.6765 31.4656 24.89 30.4067 23.8148 29.7163C22.7396 29.0259 21.4496 28.7512 20.1864 28.9439C18.9232 29.1366 17.7737 29.7834 16.9533 30.763C16.1328 31.7425 15.6978 32.9877 15.7297 34.2651C15.7617 35.5425 16.2584 36.7644 17.1267 37.7017C17.9951 38.6391 19.1755 39.2276 20.4467 39.3569C21.7179 39.4863 22.9927 39.1475 24.032 38.4043C25.0714 37.661 25.804 36.5641 26.0925 35.3194C27.9549 35.0432 29.6568 34.109 30.8896 32.6859C32.1224 31.2629 32.8046 29.4453 32.8125 27.5625V26.25C34.553 26.25 36.2222 25.5586 37.4529 24.3279C38.6836 23.0972 39.375 21.428 39.375 19.6875C39.375 17.947 38.6836 16.2778 37.4529 15.0471C36.2222 13.8164 34.553 13.125 32.8125 13.125ZM5.25 19.6875C5.25 18.6432 5.66484 17.6417 6.40327 16.9032C7.14169 16.1648 8.14321 15.75 9.1875 15.75V23.625C8.14321 23.625 7.14169 23.2101 6.40327 22.4717C5.66484 21.7333 5.25 20.7318 5.25 19.6875ZM21 36.75C20.4808 36.75 19.9733 36.596 19.5416 36.3076C19.1099 36.0192 18.7735 35.6092 18.5748 35.1295C18.3761 34.6499 18.3242 34.1221 18.4254 33.6129C18.5267 33.1037 18.7767 32.6359 19.1438 32.2688C19.511 31.9017 19.9787 31.6517 20.4879 31.5504C20.9971 31.4491 21.5249 31.5011 22.0045 31.6998C22.4842 31.8985 22.8942 32.2349 23.1826 32.6666C23.471 33.0983 23.625 33.6058 23.625 34.125C23.625 34.8212 23.3484 35.4889 22.8562 35.9811C22.3639 36.4734 21.6962 36.75 21 36.75ZM32.8125 23.625V15.75C33.8568 15.75 34.8583 16.1648 35.5967 16.9032C36.3352 17.6417 36.75 18.6432 36.75 19.6875C36.75 20.7318 36.3352 21.7333 35.5967 22.4717C34.8583 23.2101 33.8568 23.625 32.8125 23.625Z" fill="#5D5FEF"/>
</g>
<defs>
<clipPath id="clip0_4498_5254">
<rect width="42" height="42" fill="white"/>
</clipPath>
</defs>
</svg>
