<svg width="16" height="16" viewBox="0 0 16 16" fill="none" xmlns="http://www.w3.org/2000/svg">
<path fill-rule="evenodd" clip-rule="evenodd" d="M8.00001 0.5C5.96312 0.5 5.70771 0.508634 4.90776 0.545133C4.10947 0.581543 3.56427 0.70834 3.08721 0.893755C2.59402 1.08539 2.17577 1.34184 1.75879 1.75879C1.34184 2.17577 1.08539 2.59402 0.893755 3.08721C0.70834 3.56427 0.581543 4.10947 0.545133 4.90776C0.508634 5.70771 0.5 5.96312 0.5 8.00001C0.5 10.0369 0.508634 10.2923 0.545133 11.0922C0.581543 11.8905 0.70834 12.4357 0.893755 12.9128C1.08539 13.406 1.34184 13.8242 1.75879 14.2412C2.17577 14.6582 2.59402 14.9146 3.08721 15.1063C3.56427 15.2917 4.10947 15.4185 4.90776 15.4549C5.70771 15.4914 5.96312 15.5 8.00001 15.5C10.0369 15.5 10.2923 15.4914 11.0922 15.4549C11.8905 15.4185 12.4357 15.2917 12.9128 15.1063C13.406 14.9146 13.8242 14.6582 14.2412 14.2412C14.6582 13.8242 14.9146 13.406 15.1063 12.9128C15.2917 12.4357 15.4185 11.8905 15.4549 11.0922C15.4914 10.2923 15.5 10.0369 15.5 8.00001C15.5 5.96312 15.4914 5.70771 15.4549 4.90776C15.4185 4.10947 15.2917 3.56427 15.1063 3.08721C14.9146 2.59402 14.6582 2.17577 14.2412 1.75879C13.8242 1.34184 13.406 1.08539 12.9128 0.893755C12.4357 0.70834 11.8905 0.581543 11.0922 0.545133C10.2923 0.508634 10.0369 0.5 8.00001 0.5ZM8.00039 1.85132C10.003 1.85132 10.2402 1.85897 11.031 1.89505C11.7623 1.9284 12.1594 2.05058 12.4237 2.15329C12.7737 2.28934 13.0236 2.45186 13.286 2.71433C13.5485 2.97676 13.711 3.2266 13.8471 3.57668C13.9498 3.84096 14.0719 4.23808 14.1053 4.96933C14.1414 5.76017 14.149 5.99739 14.149 7.99998C14.149 10.0026 14.1414 10.2398 14.1053 11.0306C14.0719 11.7619 13.9498 12.159 13.8471 12.4233C13.711 12.7733 13.5485 13.0232 13.286 13.2856C13.0236 13.5481 12.7737 13.7106 12.4237 13.8467C12.1594 13.9494 11.7623 14.0715 11.031 14.1049C10.2403 14.141 10.0031 14.1486 8.00039 14.1486C5.99765 14.1486 5.76049 14.141 4.96973 14.1049C4.23849 14.0715 3.84137 13.9494 3.57709 13.8467C3.22701 13.7106 2.97717 13.5481 2.71474 13.2856C2.4523 13.0232 2.28975 12.7733 2.1537 12.4233C2.05098 12.159 1.9288 11.7619 1.89546 11.0306C1.85938 10.2398 1.85173 10.0026 1.85173 7.99998C1.85173 5.99739 1.85938 5.76017 1.89546 4.96933C1.9288 4.23808 2.05098 3.84096 2.1537 3.57668C2.28975 3.2266 2.45227 2.97676 2.71474 2.71433C2.97717 2.45186 3.22701 2.28934 3.57709 2.15329C3.84137 2.05058 4.23849 1.9284 4.96973 1.89505C5.76058 1.85897 5.9978 1.85132 8.00039 1.85132ZM4.14827 8.00005C4.14827 5.87298 5.87257 4.14868 7.99964 4.14868C10.1267 4.14868 11.851 5.87298 11.851 8.00005C11.851 10.1271 10.1267 11.8514 7.99964 11.8514C5.87257 11.8514 4.14827 10.1271 4.14827 8.00005ZM8.00001 10.5C6.61928 10.5 5.5 9.38072 5.5 8.00001C5.5 6.61928 6.61928 5.5 8.00001 5.5C9.38072 5.5 10.5 6.61928 10.5 8.00001C10.5 9.38072 9.38072 10.5 8.00001 10.5ZM12.0038 4.89644C12.5009 4.89644 12.9038 4.49351 12.9038 3.99645C12.9038 3.49939 12.5009 3.09644 12.0038 3.09644C11.5068 3.09644 11.1038 3.49939 11.1038 3.99645C11.1038 4.49351 11.5068 4.89644 12.0038 4.89644Z" fill="white"/>
</svg>
