<svg width="20" height="20" viewBox="0 0 20 20" fill="none" xmlns="http://www.w3.org/2000/svg">
<path d="M3.33325 7.22214H6.11103V16.6666H3.33325V7.22214ZM4.71381 6.11103H4.69825C3.86936 6.11103 3.33325 5.49325 3.33325 4.72159C3.33325 3.93325 3.88603 3.33325 4.72992 3.33325C5.57492 3.33325 6.09547 3.93325 6.11103 4.72159C6.11103 5.4927 5.57492 6.11103 4.71381 6.11103ZM16.6666 16.6666H13.8888V11.6116C13.8888 10.3905 13.2083 9.55714 12.1155 9.55714C11.2816 9.55714 10.8305 10.1194 10.6116 10.6627C10.5316 10.8571 10.5555 11.3949 10.5555 11.6666V16.6666H7.7777V7.22214H10.5555V8.67547C10.956 8.05547 11.5833 7.22214 13.1877 7.22214C15.1755 7.22214 16.666 8.47214 16.666 11.2633L16.6666 16.6666Z" fill="white"/>
</svg>
