<svg width="42" height="42" viewBox="0 0 42 42" fill="none" xmlns="http://www.w3.org/2000/svg">
<g opacity="0.9" clip-path="url(#clip0_4498_6301)">
<path d="M26.25 23.625C25.5578 23.625 24.8811 23.4197 24.3055 23.0351C23.7299 22.6506 23.2813 22.1039 23.0164 21.4644C22.7515 20.8249 22.6822 20.1211 22.8173 19.4422C22.9523 18.7633 23.2856 18.1396 23.7751 17.6501C24.2646 17.1606 24.8883 16.8273 25.5672 16.6923C26.2461 16.5572 26.9499 16.6265 27.5894 16.8914C28.2289 17.1563 28.7756 17.6049 29.1601 18.1805C29.5447 18.7561 29.75 19.4328 29.75 20.125C29.749 21.0529 29.3799 21.9426 28.7237 22.5987C28.0676 23.2549 27.1779 23.624 26.25 23.625ZM26.25 18.025C25.8347 18.025 25.4286 18.1482 25.0833 18.3789C24.738 18.6097 24.4688 18.9376 24.3099 19.3214C24.1509 19.7051 24.1093 20.1273 24.1904 20.5347C24.2714 20.9421 24.4714 21.3162 24.7651 21.6099C25.0588 21.9036 25.433 22.1036 25.8403 22.1846C26.2477 22.2657 26.6699 22.2241 27.0536 22.0651C27.4374 21.9062 27.7653 21.637 27.9961 21.2917C28.2268 20.9464 28.35 20.5403 28.35 20.125C28.3494 19.5682 28.1279 19.0344 27.7342 18.6408C27.3406 18.2471 26.8068 18.0256 26.25 18.025Z" fill="#5D5FEF" stroke="#5D5FEF"/>
<path d="M38.3954 16.6249L22.75 32.2704L23.7295 33.2499L39.375 17.6045L38.3954 16.6249Z" fill="#5D5FEF" stroke="#5D5FEF"/>
<path d="M35.875 33.25C35.1828 33.25 34.5061 33.0447 33.9305 32.6601C33.3549 32.2756 32.9063 31.7289 32.6414 31.0894C32.3765 30.4499 32.3072 29.7461 32.4423 29.0672C32.5773 28.3883 32.9106 27.7646 33.4001 27.2751C33.8896 26.7856 34.5133 26.4523 35.1922 26.3173C35.8711 26.1822 36.5749 26.2515 37.2144 26.5164C37.8539 26.7813 38.4006 27.2299 38.7851 27.8055C39.1697 28.3811 39.375 29.0578 39.375 29.75C39.374 30.6779 39.0049 31.5676 38.3487 32.2237C37.6926 32.8799 36.8029 33.249 35.875 33.25ZM35.875 27.65C35.4597 27.65 35.0536 27.7732 34.7083 28.0039C34.363 28.2347 34.0938 28.5626 33.9349 28.9464C33.7759 29.3301 33.7343 29.7523 33.8154 30.1597C33.8964 30.5671 34.0964 30.9412 34.3901 31.2349C34.6838 31.5286 35.058 31.7286 35.4653 31.8096C35.8727 31.8907 36.2949 31.8491 36.6786 31.6901C37.0624 31.5312 37.3903 31.262 37.6211 30.9167C37.8518 30.5714 37.975 30.1653 37.975 29.75C37.9744 29.1932 37.7529 28.6594 37.3592 28.2658C36.9656 27.8721 36.4318 27.6506 35.875 27.65Z" fill="#5D5FEF" stroke="#5D5FEF"/>
<path d="M18.5611 29.9441C16.9464 32.148 14.7024 33.25 11.8292 33.25C8.95602 33.25 6.70091 32.1535 5.06386 29.9604C3.43795 27.7565 2.625 24.7615 2.625 20.9755C2.625 17.2222 3.44352 14.249 5.08057 12.0559C6.71761 9.85198 8.96716 8.75 11.8292 8.75C14.6913 8.75 16.9352 9.84653 18.5611 12.0396C20.187 14.2217 21 17.1949 21 20.9591C21 24.7451 20.187 27.7401 18.5611 29.9441ZM7.83682 27.7346C8.78341 29.3603 10.1142 30.1732 11.8292 30.1732C13.5442 30.1732 14.8694 29.3603 15.8049 27.7346C16.7515 26.098 17.2248 23.845 17.2248 20.9755C17.2248 18.1387 16.7459 15.9074 15.7882 14.2817C14.8416 12.6451 13.5219 11.8268 11.8292 11.8268C10.1365 11.8268 8.81125 12.6451 7.85352 14.2817C6.8958 15.9183 6.41693 18.1496 6.41693 20.9755C6.41693 23.845 6.89023 26.098 7.83682 27.7346Z" fill="#5D5FEF"/>
</g>
<defs>
<clipPath id="clip0_4498_6301">
<rect width="42" height="42" fill="white"/>
</clipPath>
</defs>
</svg>
