<svg viewBox="0 0 24 24" xmlns="http://www.w3.org/2000/svg" xmlns:xlink="http://www.w3.org/1999/xlink" width="24.000000" height="24.000000" fill="none">
	<rect id="save" width="24.000000" height="24.000000" x="0.000000" y="0.000000" fill="rgb(255,255,255)" fill-opacity="0" />
	<path id="Vector" d="M18 1.5L6 1.5C5.60218 1.5 5.22064 1.65804 4.93934 1.93934C4.65804 2.22064 4.5 2.60218 4.5 3L4.5 22.5L12 18.7097L19.5 22.5L19.5 3C19.5 2.60218 19.342 2.22064 19.0607 1.93934C18.7794 1.65804 18.3978 1.5 18 1.5Z" fill="rgb(93,95,239)" fill-opacity="0" fill-rule="nonzero" />
	<path id="Vector" d="M12 18.7097L19.5 22.5L19.5 3C19.5 2.60218 19.342 2.22064 19.0607 1.93934C18.7794 1.65804 18.3978 1.5 18 1.5L6 1.5C5.60218 1.5 5.22064 1.65804 4.93934 1.93934C4.65804 2.22064 4.5 2.60218 4.5 3L4.5 22.5L12 18.7097ZM6 20.0613L12 17.029L18 20.0613L18 3L6 3L6 20.0613Z" fill="rgb(93,95,239)" fill-rule="evenodd" />
	<path id="&lt;Transparent Rectangle>" />
</svg>
