<svg viewBox="0 0 24 24" xmlns="http://www.w3.org/2000/svg" xmlns:xlink="http://www.w3.org/1999/xlink" width="24.000000" height="24.000000" fill="none">
	<rect id="send" width="24.000000" height="24.000000" x="0.000000" y="0.000000" fill="rgb(255,255,255)" fill-opacity="0" />
	<path id="Vector" d="M20.7823 3.21745C20.681 3.1167 20.5532 3.04695 20.4137 3.01639C20.2742 2.98584 20.1288 2.99574 19.9948 3.04495L3.49476 9.04495C3.35246 9.09892 3.22995 9.19491 3.14349 9.32017C3.05704 9.44542 3.01074 9.59401 3.01074 9.7462C3.01074 9.89839 3.05704 10.047 3.14349 10.1722C3.22995 10.2975 3.35246 10.3935 3.49476 10.4474L10.6948 13.3275L13.5748 20.5275C13.6289 20.6635 13.7216 20.7807 13.8416 20.8647C13.9615 20.9487 14.1034 20.9957 14.2498 21C14.4013 20.9968 14.5484 20.9479 14.6716 20.8595C14.7947 20.7711 14.8882 20.6475 14.9398 20.5049L20.9398 4.00495C20.9909 3.87226 21.0032 3.72777 20.9753 3.58834C20.9474 3.44891 20.8805 3.32028 20.7823 3.21745ZM14.2498 18.15L12.1573 12.9L15.7498 9.30745L14.6923 8.24995L11.0698 11.8724L5.84976 9.74995L18.9973 5.00245L14.2498 18.15Z" fill="rgb(255,255,255)" fill-rule="nonzero" />
	<path id="&lt;Transparent Rectangle>" />
</svg>
