<svg width="24" height="24" viewBox="0 0 24 24" fill="none" xmlns="http://www.w3.org/2000/svg">
<path d="M2 6L2 18C2 19.1046 2.89543 20 4 20L20 20C21.1046 20 22 19.1046 22 18L22 6C22 4.89543 21.1046 4 20 4L4 4C2.89543 4 2 4.89543 2 6Z" stroke="#5D5FEF" stroke-width="2" stroke-linecap="round" stroke-linejoin="round"/>
<path d="M4 13.9177V10.0823H5.18239V10.7657H5.20755C5.33054 10.5224 5.50943 10.3363 5.74423 10.2075C5.98183 10.0763 6.27114 10.0107 6.61216 10.0107C7.10971 10.0107 7.49406 10.1371 7.7652 10.39C8.03634 10.6428 8.17191 10.9946 8.17191 11.4454V13.9177H6.94759V11.6637C6.94759 11.4109 6.87771 11.2165 6.73795 11.0805C6.59818 10.9445 6.39273 10.8766 6.12159 10.8766C5.85045 10.8766 5.63242 10.9541 5.46751 11.1091C5.30538 11.2642 5.22432 11.4669 5.22432 11.7174V13.9177H4Z" fill="#5D5FEF"/>
<path d="M10.9644 10.7728C10.6988 10.7728 10.4766 10.8503 10.2977 11.0054C10.1216 11.1604 10.0224 11.3584 10 11.5993H11.9078C11.8938 11.3536 11.8001 11.1544 11.6268 11.0018C11.4563 10.8491 11.2355 10.7728 10.9644 10.7728ZM11.9245 12.7442H13.0482C12.9811 13.121 12.7603 13.4252 12.3857 13.6565C12.014 13.8855 11.5514 14 10.9979 14C10.3075 14 9.7652 13.8235 9.37107 13.4705C8.97973 13.1175 8.78407 12.6333 8.78407 12.0179C8.78407 11.4049 8.97973 10.9159 9.37107 10.551C9.7624 10.1837 10.2893 10 10.9518 10C11.6031 10 12.1216 10.1741 12.5073 10.5224C12.8931 10.8706 13.086 11.3369 13.086 11.9213V12.2397H9.98742V12.3041C9.98742 12.5784 10.0811 12.8014 10.2683 12.9732C10.4584 13.1425 10.7086 13.2272 11.0189 13.2272C11.2425 13.2272 11.4354 13.1843 11.5975 13.0984C11.7596 13.0101 11.8686 12.8921 11.9245 12.7442Z" fill="#5D5FEF"/>
<path d="M20 10.0823L18.8092 13.9177H17.5052L16.6918 11.2057H16.6667L15.8574 13.9177H14.5702L13.3753 10.0823H14.608L15.2872 12.9267H15.3124L16.109 10.0823H17.283L18.0839 12.9267H18.109L18.7925 10.0823H20Z" fill="#5D5FEF"/>
</svg>
