<svg width="24" height="24" viewBox="0 0 24 24" fill="none" xmlns="http://www.w3.org/2000/svg">
<path d="M14.2002 5.90039C14.5263 5.9005 14.7891 6.17197 14.7891 6.5C14.7891 6.9969 15.1865 7.40039 15.667 7.40039H21.2891C22.2996 7.40048 23.0996 8.22196 23.0996 9.25C23.0996 10.1439 22.4715 10.8888 21.6338 11.0566V14.4424C22.4704 14.61 23.0989 15.3549 23.0752 16.25C23.0752 17.278 22.2752 18.0995 21.2646 18.0996H11.7314C11.6928 18.0996 11.6507 18.0909 11.6152 18.0811C11.5785 18.0708 11.5389 18.0572 11.5029 18.0449L11.4922 18.041V18.04L7.84473 16.2871C7.58815 16.1639 7.30709 16.0997 7.02246 16.0996H2.71094C1.70035 16.0995 0.900391 15.278 0.900391 14.25C0.900391 13.222 1.70035 12.4005 2.71094 12.4004H8.57812C8.62459 12.4004 8.67017 12.4081 8.71289 12.4189L8.83008 12.4551L8.8418 12.459L8.84082 12.46L12.8779 14.4004H13.1221V10.8369C12.2914 10.4381 11.7051 9.64729 11.6553 8.67969V8.67871C11.6055 7.95278 11.8593 7.25258 12.3408 6.7334L12.5303 6.54102C12.9911 6.11963 13.5769 5.90039 14.2002 5.90039ZM2.71094 13.5996C2.3528 13.5997 2.07813 13.8782 2.07813 14.25C2.07813 14.599 2.35493 14.9003 2.71094 14.9004H7.59961C7.64595 14.9004 7.69175 14.9081 7.73438 14.9189L7.85254 14.9551L7.86328 14.959V14.96L11.5107 16.7129C11.7673 16.8361 12.0484 16.9003 12.333 16.9004H21.2891C21.6461 16.9003 21.9194 16.5991 21.8984 16.2559L21.8975 16.25C21.8975 15.8782 21.6228 15.5997 21.2646 15.5996L12.709 15.5996C12.6705 15.5996 12.6291 15.5909 12.5938 15.5811C12.557 15.5708 12.5173 15.5572 12.4814 15.5449L12.4697 15.541V15.54L8.82324 13.7871C8.56647 13.6637 8.28489 13.5996 8 13.5996H2.71094ZM19.1885 14.4004H20.4551V11.0996H19.1885V14.4004ZM16.7441 14.4004L18.0107 14.4004V11.0996H16.7441V14.4004ZM14.2998 14.4004H15.5664V11.0996H14.2998V14.4004ZM13.7227 7.18066C13.5347 7.25598 13.3596 7.37864 13.1992 7.54199L13.1104 7.65137C12.9161 7.91613 12.8131 8.24562 12.833 8.59375L12.8486 8.72656C12.9587 9.38407 13.5639 9.90039 14.2734 9.90039L21.2891 9.90039C21.6451 9.90029 21.9219 9.59905 21.9219 9.25C21.9219 8.87816 21.6472 8.5997 21.2891 8.59961L15.667 8.59961C14.7517 8.59961 14.007 7.99247 13.7227 7.18066Z" fill="#5D5FEF" stroke="#5D5FEF" stroke-width="0.2"/>
</svg>
