<svg width="20" height="20" viewBox="0 0 20 20" fill="none" xmlns="http://www.w3.org/2000/svg">
<path d="M18.0284 3.35928C17.3493 3.68011 16.1934 4.28178 15.6126 4.39678C15.5901 4.40261 15.5718 4.41011 15.5501 4.41594C14.8726 3.74761 13.9443 3.33344 12.9168 3.33344C10.8459 3.33344 9.16677 5.01261 9.16677 7.08344C9.16677 7.19261 9.15761 7.39344 9.16677 7.50011C6.48511 7.50011 4.52677 6.10094 3.06094 4.30261C2.86511 4.06094 2.65677 4.18678 2.61344 4.35844C2.51594 4.74678 2.48261 5.39594 2.48261 5.85928C2.48261 7.02678 3.39511 8.17344 4.81594 8.88428C4.55427 8.95178 4.26594 9.00011 3.96594 9.00011C3.61261 9.00011 3.20594 8.90761 2.85011 8.72094C2.71844 8.65178 2.43427 8.67094 2.51844 9.00761C2.85594 10.3568 4.39594 11.3043 5.77177 11.5801C5.45927 11.7643 4.79261 11.7268 4.48594 11.7268C4.37261 11.7268 3.97844 11.7001 3.72344 11.6684C3.49094 11.6401 3.13344 11.7001 3.43261 12.1534C4.07511 13.1259 5.52844 13.7368 6.77927 13.7601C5.62761 14.6634 3.74427 14.9934 1.94011 14.9934C1.57511 14.9851 1.59344 15.4009 1.88761 15.5551C3.21844 16.2534 5.39844 16.6668 6.95594 16.6668C13.1476 16.6668 16.6668 11.9476 16.6668 7.49928C16.6668 7.42761 16.6651 7.27761 16.6626 7.12678C16.6626 7.11178 16.6668 7.09761 16.6668 7.08261C16.6668 7.06011 16.6601 7.03844 16.6601 7.01594C16.6576 6.90261 16.6551 6.79678 16.6526 6.74178C17.1434 6.38761 17.8951 5.77261 18.2751 5.30178C18.4043 5.14178 18.3001 4.94761 18.1243 5.00844C17.6718 5.16594 16.8893 5.47094 16.3993 5.52928C17.3801 4.88011 17.8651 4.31511 18.2818 3.68761C18.4243 3.47344 18.2459 3.25594 18.0284 3.35928Z" fill="white"/>
</svg>
